<svg width="300" height="300" viewBox="0 0 300 300" fill="none" xmlns="http://www.w3.org/2000/svg">
<circle opacity="0.6" cx="150" cy="150" r="112.5" fill="#E23434"/>
<circle opacity="0.4" cx="150" cy="150" r="150" fill="#E23434"/>
<circle opacity="0.8" cx="150" cy="150" r="75" fill="#E23434"/>
<path d="M154.167 158.333H143.75M164.583 158.333H170.833V151.771C170.835 151.275 170.659 150.795 170.339 150.417C170.018 150.039 169.573 149.788 169.083 149.708L158.333 147.917L152.708 140.417C152.514 140.158 152.263 139.948 151.973 139.803C151.684 139.659 151.365 139.583 151.042 139.583H135.917C135.14 139.578 134.378 139.79 133.715 140.195C133.052 140.599 132.516 141.182 132.167 141.875L130.5 145.271C129.625 147.01 129.169 148.929 129.167 150.875V158.333H133.333" stroke="white" stroke-width="5" stroke-linecap="round" stroke-linejoin="round"/>
<path d="M138.542 164.583C141.418 164.583 143.75 162.251 143.75 159.375C143.75 156.499 141.418 154.167 138.542 154.167C135.665 154.167 133.333 156.499 133.333 159.375C133.333 162.251 135.665 164.583 138.542 164.583Z" stroke="white" stroke-width="5" stroke-linecap="round" stroke-linejoin="round"/>
<path d="M159.375 164.583C162.252 164.583 164.583 162.251 164.583 159.375C164.583 156.499 162.252 154.167 159.375 154.167C156.499 154.167 154.167 156.499 154.167 159.375C154.167 162.251 156.499 164.583 159.375 164.583Z" stroke="white" stroke-width="5" stroke-linecap="round" stroke-linejoin="round"/>
</svg>
