<svg width="300" height="300" viewBox="0 0 300 300" fill="none" xmlns="http://www.w3.org/2000/svg">
<circle opacity="0.6" cx="150" cy="150" r="112.5" fill="#E23434"/>
<circle opacity="0.4" cx="150" cy="150" r="150" fill="#E23434"/>
<circle opacity="0.8" cx="150" cy="150" r="75" fill="#E23434"/>
<path d="M129.167 166.667V164.583C129.167 160.716 130.703 157.006 133.438 154.271C136.173 151.536 139.882 150 143.75 150" stroke="white" stroke-width="4" stroke-linecap="round" stroke-linejoin="round"/>
<path d="M157.925 150.652C158.241 150.305 158.626 150.028 159.055 149.839C159.484 149.649 159.948 149.552 160.417 149.552C160.886 149.552 161.35 149.649 161.779 149.839C162.208 150.028 162.592 150.305 162.908 150.652C163.585 151.396 164.554 151.798 165.558 151.75C166.027 151.728 166.495 151.804 166.933 151.974C167.37 152.143 167.768 152.402 168.1 152.734C168.432 153.065 168.69 153.463 168.86 153.9C169.029 154.338 169.105 154.806 169.083 155.275C169.035 156.277 169.438 157.248 170.179 157.925C171.648 159.262 171.648 161.571 170.179 162.908C169.438 163.585 169.035 164.554 169.083 165.558C169.105 166.027 169.029 166.495 168.86 166.933C168.69 167.37 168.432 167.768 168.1 168.1C167.768 168.432 167.37 168.69 166.933 168.86C166.495 169.029 166.027 169.105 165.558 169.083C165.063 169.06 164.569 169.146 164.111 169.335C163.653 169.525 163.242 169.813 162.908 170.179C162.592 170.526 162.208 170.803 161.779 170.992C161.35 171.182 160.886 171.28 160.417 171.28C159.948 171.28 159.484 171.182 159.055 170.992C158.626 170.803 158.241 170.526 157.925 170.179C157.591 169.813 157.18 169.525 156.722 169.335C156.264 169.146 155.77 169.06 155.275 169.083C154.806 169.105 154.338 169.029 153.9 168.86C153.463 168.69 153.065 168.432 152.734 168.1C152.402 167.768 152.143 167.37 151.974 166.933C151.804 166.495 151.728 166.027 151.75 165.558C151.773 165.063 151.687 164.569 151.497 164.111C151.307 163.653 151.019 163.242 150.652 162.908C150.305 162.592 150.028 162.208 149.839 161.779C149.649 161.35 149.552 160.886 149.552 160.417C149.552 159.948 149.649 159.484 149.839 159.055C150.028 158.626 150.305 158.241 150.652 157.925C151.396 157.248 151.798 156.279 151.75 155.275C151.728 154.806 151.804 154.338 151.974 153.9C152.143 153.463 152.402 153.065 152.734 152.734C153.065 152.402 153.463 152.143 153.9 151.974C154.338 151.804 154.806 151.728 155.275 151.75C156.277 151.798 157.248 151.396 157.925 150.652Z" stroke="white" stroke-width="4"/>
<path d="M157.008 160.417L159.279 162.688L163.825 158.146M143.75 150C145.96 150 148.08 149.122 149.643 147.559C151.205 145.996 152.083 143.877 152.083 141.667C152.083 139.457 151.205 137.337 149.643 135.774C148.08 134.211 145.96 133.333 143.75 133.333C141.54 133.333 139.42 134.211 137.857 135.774C136.295 137.337 135.417 139.457 135.417 141.667C135.417 143.877 136.295 145.996 137.857 147.559C139.42 149.122 141.54 150 143.75 150Z" stroke="white" stroke-width="4" stroke-linecap="round" stroke-linejoin="round"/>
</svg>
