<svg width="300" height="300" viewBox="0 0 300 300" fill="none" xmlns="http://www.w3.org/2000/svg">
<circle opacity="0.6" cx="150" cy="150" r="112.5" fill="#0057FF"/>
<circle opacity="0.4" cx="150" cy="150" r="150" fill="#0057FF"/>
<circle opacity="0.8" cx="150" cy="150" r="75" fill="#0057FF"/>
<path d="M166.333 145.833C166.333 158.333 149.667 170.833 149.667 170.833C149.667 170.833 133 158.333 133 145.833C133 141.413 134.756 137.174 137.882 134.048C141.007 130.923 145.246 129.167 149.667 129.167C154.087 129.167 158.326 130.923 161.452 134.048C164.577 137.174 166.333 141.413 166.333 145.833Z" stroke="white" stroke-width="5" stroke-linecap="round" stroke-linejoin="round"/>
<path d="M149.25 152.083C152.702 152.083 155.5 149.285 155.5 145.833C155.5 142.382 152.702 139.583 149.25 139.583C145.798 139.583 143 142.382 143 145.833C143 149.285 145.798 152.083 149.25 152.083Z" stroke="white" stroke-width="5" stroke-linecap="round" stroke-linejoin="round"/>
</svg>
